<svg width="1920" height="1080" xmlns="http://www.w3.org/2000/svg">
  <defs>
    <linearGradient id="grad6" x1="0%" y1="0%" x2="100%" y2="100%">
      <stop offset="0%" style="stop-color:#4338ca;stop-opacity:1" />
      <stop offset="100%" style="stop-color:#6366f1;stop-opacity:1" />
    </linearGradient>
  </defs>
  <rect width="1920" height="1080" fill="url(#grad6)"/>
  <rect x="560" y="200" width="800" height="600" rx="10" fill="rgba(255,255,255,0.15)" stroke="rgba(255,255,255,0.3)" stroke-width="3"/>
  <line x1="600" y1="250" x2="1320" y2="250" stroke="rgba(255,255,255,0.4)" stroke-width="2"/>
  <line x1="600" y1="300" x2="1320" y2="300" stroke="rgba(255,255,255,0.4)" stroke-width="2"/>
  <line x1="600" y1="350" x2="1320" y2="350" stroke="rgba(255,255,255,0.4)" stroke-width="2"/>
  <line x1="600" y1="400" x2="1320" y2="400" stroke="rgba(255,255,255,0.4)" stroke-width="2"/>
  <line x1="750" y1="200" x2="750" y2="800" stroke="rgba(255,255,255,0.4)" stroke-width="2"/>
  <line x1="900" y1="200" x2="900" y2="800" stroke="rgba(255,255,255,0.4)" stroke-width="2"/>
  <line x1="1050" y1="200" x2="1050" y2="800" stroke="rgba(255,255,255,0.4)" stroke-width="2"/>
  <line x1="1200" y1="200" x2="1200" y2="800" stroke="rgba(255,255,255,0.4)" stroke-width="2"/>
  <rect x="620" y="270" width="100" height="60" rx="5" fill="rgba(255,255,255,0.25)"/>
  <rect x="780" y="320" width="280" height="40" rx="5" fill="rgba(255,255,255,0.25)"/>
  <circle cx="650" cy="500" r="80" fill="rgba(255,255,255,0.2)" stroke="rgba(255,255,255,0.4)" stroke-width="2"/>
  <rect x="800" y="470" width="220" height="140" rx="5" fill="rgba(255,255,255,0.2)" stroke="rgba(255,255,255,0.4)" stroke-width="2"/>
  <text x="960" y="900" font-family="Arial, sans-serif" font-size="48" fill="white" text-anchor="middle" font-weight="bold">Construction OCR</text>
  <text x="960" y="970" font-family="Arial, sans-serif" font-size="32" fill="rgba(255,255,255,0.8)" text-anchor="middle">Document Analysis • OCR • Computer Vision</text>
</svg>
