<svg width="1920" height="1080" xmlns="http://www.w3.org/2000/svg">
  <defs>
    <linearGradient id="grad7" x1="0%" y1="0%" x2="100%" y2="100%">
      <stop offset="0%" style="stop-color:#dc2626;stop-opacity:1" />
      <stop offset="100%" style="stop-color:#f87171;stop-opacity:1" />
    </linearGradient>
  </defs>
  <rect width="1920" height="1080" fill="url(#grad7)"/>
  <rect x="560" y="200" width="800" height="500" rx="20" fill="rgba(255,255,255,0.15)" stroke="rgba(255,255,255,0.3)" stroke-width="3"/>
  <circle cx="960" cy="400" r="80" fill="rgba(255,255,255,0.25)"/>
  <path d="M 930 400 L 990 370 L 990 430 Z" fill="white"/>
  <circle cx="620" cy="260" r="30" fill="rgba(255,0,0,0.8)"/>
  <text x="670" y="275" font-family="Arial, sans-serif" font-size="32" fill="white" font-weight="bold">LIVE</text>
  <rect x="1000" y="240" width="320" height="80" rx="10" fill="rgba(255,255,255,0.2)"/>
  <circle cx="1040" cy="280" r="20" fill="rgba(255,255,255,0.3)"/>
  <rect x="1080" y="265" width="220" height="30" rx="5" fill="rgba(255,255,255,0.3)"/>
  <rect x="1000" y="340" width="320" height="80" rx="10" fill="rgba(255,255,255,0.2)"/>
  <circle cx="1040" cy="380" r="20" fill="rgba(255,255,255,0.3)"/>
  <rect x="1080" y="365" width="220" height="30" rx="5" fill="rgba(255,255,255,0.3)"/>
  <rect x="1000" y="440" width="320" height="80" rx="10" fill="rgba(255,255,255,0.2)"/>
  <circle cx="1040" cy="480" r="20" fill="rgba(255,255,255,0.3)"/>
  <rect x="1080" y="465" width="220" height="30" rx="5" fill="rgba(255,255,255,0.3)"/>
  <text x="960" y="800" font-family="Arial, sans-serif" font-size="48" fill="white" text-anchor="middle" font-weight="bold">Live Streaming Platform</text>
  <text x="960" y="870" font-family="Arial, sans-serif" font-size="32" fill="rgba(255,255,255,0.8)" text-anchor="middle">Engagement • Real-Time • AI Assistant</text>
</svg>
