<svg width="1920" height="1080" xmlns="http://www.w3.org/2000/svg">
  <defs>
    <linearGradient id="grad8" x1="0%" y1="0%" x2="100%" y2="100%">
      <stop offset="0%" style="stop-color:#0d9488;stop-opacity:1" />
      <stop offset="100%" style="stop-color:#14b8a6;stop-opacity:1" />
    </linearGradient>
  </defs>
  <rect width="1920" height="1080" fill="url(#grad8)"/>
  <rect x="360" y="350" width="180" height="120" rx="10" fill="rgba(255,255,255,0.2)" stroke="rgba(255,255,255,0.4)" stroke-width="3"/>
  <text x="450" y="420" font-family="Arial, sans-serif" font-size="24" fill="white" text-anchor="middle" font-weight="bold">Data</text>
  <path d="M 540 410 L 610 410" stroke="white" stroke-width="4" marker-end="url(#arrow)"/>
  <rect x="610" y="350" width="180" height="120" rx="10" fill="rgba(255,255,255,0.2)" stroke="rgba(255,255,255,0.4)" stroke-width="3"/>
  <text x="700" y="420" font-family="Arial, sans-serif" font-size="24" fill="white" text-anchor="middle" font-weight="bold">Train</text>
  <path d="M 790 410 L 860 410" stroke="white" stroke-width="4" marker-end="url(#arrow)"/>
  <rect x="860" y="350" width="180" height="120" rx="10" fill="rgba(255,255,255,0.2)" stroke="rgba(255,255,255,0.4)" stroke-width="3"/>
  <text x="950" y="420" font-family="Arial, sans-serif" font-size="24" fill="white" text-anchor="middle" font-weight="bold">Validate</text>
  <path d="M 1040 410 L 1110 410" stroke="white" stroke-width="4" marker-end="url(#arrow)"/>
  <rect x="1110" y="350" width="180" height="120" rx="10" fill="rgba(255,255,255,0.2)" stroke="rgba(255,255,255,0.4)" stroke-width="3"/>
  <text x="1200" y="420" font-family="Arial, sans-serif" font-size="24" fill="white" text-anchor="middle" font-weight="bold">Deploy</text>
  <path d="M 1290 410 L 1360 410" stroke="white" stroke-width="4" marker-end="url(#arrow)"/>
  <rect x="1360" y="350" width="180" height="120" rx="10" fill="rgba(255,255,255,0.2)" stroke="rgba(255,255,255,0.4)" stroke-width="3"/>
  <text x="1450" y="420" font-family="Arial, sans-serif" font-size="24" fill="white" text-anchor="middle" font-weight="bold">Monitor</text>
  <path d="M 1450 470 Q 1450 550 950 550 Q 450 550 450 470" stroke="white" stroke-width="3" fill="none" stroke-dasharray="10,5" marker-end="url(#arrow)"/>
  <defs>
    <marker id="arrow" markerWidth="10" markerHeight="10" refX="5" refY="3" orient="auto" markerUnits="strokeWidth">
      <path d="M0,0 L0,6 L9,3 z" fill="white" />
    </marker>
  </defs>
  <text x="960" y="700" font-family="Arial, sans-serif" font-size="48" fill="white" text-anchor="middle" font-weight="bold">MLOps Pipeline</text>
  <text x="960" y="770" font-family="Arial, sans-serif" font-size="32" fill="rgba(255,255,255,0.8)" text-anchor="middle">Automated Workflow • CI/CD • Monitoring</text>
</svg>
